<?xml version="1.0" encoding="utf-8"?>
<!-- Generator: Adobe Illustrator 15.1.0, SVG Export Plug-In  -->
<!DOCTYPE svg PUBLIC "-//W3C//DTD SVG 1.1//EN" "http://www.w3.org/Graphics/SVG/1.1/DTD/svg11.dtd" [
	<!ENTITY ns_flows "http://ns.adobe.com/Flows/1.0/">
]>
<svg version="1.1"
	 xmlns="http://www.w3.org/2000/svg" xmlns:xlink="http://www.w3.org/1999/xlink" xmlns:a="http://ns.adobe.com/AdobeSVGViewerExtensions/3.0/"
	 x="0px" y="0px" width="663px" height="180px" viewBox="52.078 14.139 663 180"
	 overflow="visible" enable-background="new 52.078 14.139 663 180" xml:space="preserve">
<defs>
</defs>
<rect fill="none" width="767.155" height="208.277"/>
<path fill="#EE2A7B" d="M372.347,161.152c-2.807,1.193-6.053,2.175-9.743,2.938c-2,0.389-8.604,0.741-11.604,0.307
	c-3.006-0.434-6.956-1.93-6.956-1.93c-3.155-1.078-6.211-2.848-9.166-5.311c-2.961-2.471-5.438-5.42-7.436-8.846
	c-2.003-3.436-3.501-7.395-4.497-11.907c-1.002-4.505-1.499-8.803-1.499-12.889c-0.004-0.371,0.012-0.765,0.046-1.202h67.863
	c-0.158-5.912-1.058-10.943-2.712-15.088c-1.654-4.149-3.787-7.756-6.399-10.827c-2.613-3.071-6.07-6.104-10.376-9.102
	c-2.996-2.067-6.728-3.665-11.182-4.777c-4.459-1.109-10.304-1.67-17.526-1.67c-3.155,0-7.264,0.734-12.335,2.189
	c-3.921,1.153-8.321,3.501-13.202,7.042c-4.882,3.542-9.475,8.466-13.777,14.773c-1.539,2.158-3.306,6.507-5.302,13.045
	c-1.08,5.386-1.615,11.433-1.615,18.127c0,3.539,0.96,8.235,2.881,14.079c1.46,4.466,3.69,8.814,6.689,13.038
	c2.997,4.233,6.572,7.774,10.722,10.624s8.8,4.965,13.95,6.351c3.842,1.076,8.798,1.613,14.873,1.613
	c8.992,0,17.121-1.672,24.385-5.017c7.264-3.343,14.274-8.746,21.04-16.199c-1.845-1.614-4.149-3.417-6.915-5.42
	C378.553,157.938,375.153,159.957,372.347,161.152z M329.285,94.916c4.149-4.538,8.801-6.806,13.951-6.806
	c3.457,0,6.877,1.107,10.26,3.305c3.379,2.199,5.881,5.271,7.494,9.207s2.805,8.416,2.882,12.741h-41.62
	C322.786,105.596,325.136,99.453,329.285,94.916z M170.367,170.893c0.461,0.053,5.467,0.737,6.426,0.737v7.563h-54.454v-7.017
	c0,0,3.395-0.483,4.87-0.705c3.322-0.497,7.786-1.451,9.178-3.018c0.397-0.444,1.51-1.674,1.51-5.534
	c0-1.066,0.183-62.47,0.183-62.47h-36.27l-6.342,0.194v61.782c0,2.841,0.378,7.083,3.592,7.788
	c2.513,0.554,9.546,1.601,11.281,1.831v7.147H54.746v-6.642c2.014-0.387,11.166-1.523,13.503-3.388
	c1.376-1.096,2.308-4.447,2.308-5.548c0-3.397,0.17-61.438,0.016-62.822c0,0-13.496,0-13.776,0c-0.45,0-0.915-0.402-0.915-0.916
	c0-0.282,0-9.021,0-9.322c0-0.303,0.241-0.669,0.666-0.669c2.82-0.009,12.722-0.061,13.325-0.461c0,0,0.92-8.848,1.921-11.539
	c4.917-13.862,9.338-22.015,14.798-28.71c5.456-6.694,12.719-12.428,21.791-17.203c0.691-0.23,1.34-0.536,1.959-0.922
	c2.074-1.08,5.281-2.043,9.627-2.893c4.34-0.848,8.473-1.266,12.395-1.266c10.449,0,17.677,1.398,21.675,4.208
	c3.993,2.807,5.996,5.896,5.996,9.279c0,3.071-1.348,6.054-4.046,8.936c-2.691,2.882-6.389,4.323-11.087,4.323
	c-1.847,0-3.637-0.33-5.37-0.98c-1.733-0.648-4.138-2.017-7.218-4.091c-7.931-5.379-14.168-8.072-18.711-8.072
	c-3.005,0-5.93,1.121-8.777,3.352c-2.929,2.313-4.818,6.473-5.894,9.247c-1.074,2.777-1.885,5.313-2.425,9.472
	c-0.541,4.17-0.808,12.789-0.808,25.893l0.115,1.037c2.923,0.23,5.47,0.346,7.625,0.346c18.099,0,29.59,0.402,34.48-1.214
	c4.893-1.613,10.534-6.781,16.925-13.082c1.534-0.23,2.651-0.347,3.343-0.347c0.384,0,1.268,0.043,2.653,0.116
	c0.533,0,1.082-0.046,2.083,0.026l0.053,81.21c0,0,0,4.623,0,6.198c0,1.847,0.289,4.364,1.285,5.819
	C165.509,170.387,167.791,170.602,170.367,170.893z M653.724,52.89c-2.535,2.578-5.347,3.862-8.416,3.862
	c-2.31,0-4.569-0.764-6.802-2.306c-1.542-1.152-3.404-3.557-5.592-7.204c-2.191-3.65-3.905-5.98-5.13-6.977
	c-1.229-0.923-2.843-1.384-4.846-1.384c-2.377,0-4.456,0.925-6.224,2.767c-1.771,1.847-3.001,4.497-3.688,7.955
	c-0.334,1.659-0.583,4.12-0.759,7.365c-0.186,3.527-0.28,7.986-0.28,13.388l-0.117,12.683l0.117,4.383h19.024
	c0.858,0,1.347,0.619,1.347,1.24v7.946c0,0.834-0.427,1.419-1.35,1.419h-18.714l0.045,63.998c0,3.302,0.542,5.641,1.604,7.023
	c0.913,1.004,2.865,1.613,5.84,1.844c1.613,0.156,9.849,1.153,9.849,1.153v7.147h-58.691v-6.841l5.009-0.768
	c0,0,8.275-1.528,9.166-2.421c0.443-0.443,1.107-1.214,1.613-2.416c0.402-0.956,0.71-2.179,0.71-3.77V98.027
	c-1.383,0-14.744,0-14.744,0c-0.61,0-1.202-0.583-1.202-1.116c0-1.797,0-7.336,0-8.572c0-0.406,0.488-0.917,1.04-0.917h14.414
	c0.09-3.506,0.036-7.731,0.492-11.072c0.732-5.378,1.935-10.549,3.62-15.505c2.726-8.027,6.17-14.469,10.319-19.312l2.997-3.343
	c2.743-2.33,5.369-4.269,7.878-5.842c2.129-1.338,4.172-2.414,6.129-3.209c4.267-1.729,9.324-2.595,15.164-2.595
	c5.69,0,10.392,0.925,14.125,2.769c3.72,1.844,6.296,4.208,7.725,7.09c1.415,2.884,2.134,5.553,2.134,8.014
	C657.53,47.488,656.26,50.313,653.724,52.89z M448.674,171.008c1.613,0.156,9.849,1.155,9.849,1.155v7.146h-59.947v-6.736
	l6.269-0.872c0,0,8.271-1.53,9.162-2.421c0.796-0.793,2.328-2.585,2.328-6.186v-38.507V56.274c0-4.088-0.968-6.813-1.976-7.821
	c-2.169-2.172-5.613-2.423-8.71-2.423c-1.862,0-5.455,0-5.455,0s-0.041-6.151,0.113-6.918c6.065-0.691,12.357-2.246,18.875-4.669
	c6.526-2.423,11.517-4.899,14.965-7.435l3.196-0.115c0.691,0,3.796-0.007,3.796-0.007l0.091,135.251
	c0,3.305,0.547,5.644,1.609,7.026C443.747,170.17,445.704,170.777,448.674,171.008z M293.312,86.009v6.502
	c0,0.834-0.428,1.219-1.35,1.219h-13.808c-2.111,1.311-10.67,27.589-17.356,42.749l-12.453,30.132
	c-1.613,3.847-2.809,6.497-3.572,7.962c-1.312,2.621-2.423,4.886-3.345,6.812h-9.339c-2.996-5.152-6.11-11.431-9.338-18.816
	l-15.68-35.1c-3.847-9.304-12.942-33.738-15.334-33.738h-8.683c-0.922,0-1.349-0.385-1.349-1.219v-6.502
	c0-0.619,0.488-1.238,1.347-1.238h49.306c0.858,0,1.347,0.619,1.347,1.238v6.502c0,0.834-0.427,1.219-1.35,1.219h-12.091
	c-3.464,0,24.046,58.214,24.969,60.067c5.378-12.394,11.182-28.171,17.408-47.335c1.616-4.999,4.1-12.732,2.757-12.732h-14.782
	c-0.922,0-1.349-0.385-1.349-1.219v-6.502c0-0.619,0.487-1.238,1.347-1.238h41.351C292.823,84.771,293.312,85.39,293.312,86.009z
	 M712.41,166.062l-0.356,0.564c-2.685,4.227-6.478,7.553-11.35,9.976c-4.891,2.418-10.098,3.63-15.63,3.63
	c-7.15,0-12.913-2.297-17.411-6.794c-3.959-3.959-6.237-10.387-6.237-21.37v-54.04h-12.701c-0.858,0-1.347-0.619-1.347-1.238v-4.425
	c2.784-1.178,5.327-2.418,7.666-3.677c5.283-2.839,9.429-5.772,12.227-8.324c4.036-3.681,8.353-9.668,12.963-17.962h6.454
	c0.538,0,0.755,0.335,0.755,0.805v25.239h21.062c0.859,0,1.348,0.619,1.348,1.238v7.126c0,0.834-0.428,1.218-1.35,1.218
	l-22.312,0.002v53.474c-0.077,3.006,0.022,5.464,0.447,7.573c0.412,2.117,1.248,5.023,2.703,6.054
	c1.455,1.028,3.474,1.521,5.625,1.521c2.075,0,3.871-0.445,4.866-0.832c1.003-0.377,2.693-1.498,5.075-3.333
	c0.457-0.389,1.193-0.923,2.188-1.614C708.939,162.328,711.258,164.604,712.41,166.062z M544.478,161.152
	c-2.812,1.193-6.057,2.175-9.745,2.938c-2,0.389-8.601,0.741-11.606,0.307c-3.002-0.434-6.954-1.93-6.954-1.93
	c-3.155-1.078-6.21-2.848-9.166-5.311c-2.961-2.471-5.44-5.42-7.438-8.846c-2-3.436-3.499-7.395-4.495-11.907
	c-1.002-4.505-1.499-8.803-1.499-12.889c-0.004-0.371,0.014-0.765,0.046-1.202h67.861c-0.158-5.912-1.058-10.943-2.712-15.088
	c-1.654-4.149-3.787-7.756-6.396-10.827c-2.617-3.071-6.075-6.104-10.378-9.102c-2.996-2.067-6.728-3.665-11.182-4.777
	c-4.462-1.109-10.301-1.67-17.524-1.67c-3.154,0-7.263,0.734-12.337,2.189c-3.921,1.153-8.323,3.501-13.2,7.042
	c-4.886,3.542-9.474,8.466-13.776,14.773c-1.542,2.158-3.309,6.507-5.307,13.045c-1.078,5.386-1.613,11.433-1.613,18.127
	c0,3.539,0.958,8.235,2.883,14.079c1.456,4.466,3.688,8.814,6.686,13.038c2.999,4.233,6.572,7.774,10.724,10.624
	s8.798,4.965,13.95,6.351c3.842,1.076,8.801,1.613,14.873,1.613c8.992,0,17.119-1.672,24.383-5.017
	c7.264-3.343,14.278-8.746,21.04-16.199c-1.844-1.614-4.149-3.417-6.915-5.42C550.679,157.938,547.28,159.957,544.478,161.152z
	 M501.412,94.916c4.153-4.538,8.8-6.806,13.953-6.806c3.458,0,6.875,1.107,10.26,3.305c3.381,2.199,5.881,5.271,7.494,9.207
	s2.805,8.416,2.884,12.741h-41.622C494.917,105.596,497.263,99.453,501.412,94.916z"/>
</svg>
