<?xml version="1.0" encoding="utf-8"?>
<!-- Generator: Adobe Illustrator 15.1.0, SVG Export Plug-In  -->
<!DOCTYPE svg PUBLIC "-//W3C//DTD SVG 1.1//EN" "http://www.w3.org/Graphics/SVG/1.1/DTD/svg11.dtd" [
	<!ENTITY ns_flows "http://ns.adobe.com/Flows/1.0/">
]>
<svg version="1.1"
	 xmlns="http://www.w3.org/2000/svg" xmlns:xlink="http://www.w3.org/1999/xlink" xmlns:a="http://ns.adobe.com/AdobeSVGViewerExtensions/3.0/"
	 x="0px" y="0px" width="663px" height="663px" viewBox="0 0 663 663" overflow="visible" enable-background="new 0 0 663 663"
	 xml:space="preserve">
<defs>
</defs>
<rect fill="none" width="663" height="663"/>
<path fill="#FFFFFF" d="M498.98,160.075h-13.902l21.402-60.549l21.402,60.549H513.98v29.982h-15V160.075z M513.98,200.058h-15
	v368.075h15V200.058z M373.272,105.468h-7.974l-5.94,17.594h-15.317v-17.594h-21.97v17.594h-21.844l6.342-19.515l-17.452-12.68
	l-17.452,12.68l6.341,19.515h-21.844v-17.594h-21.97v17.594h-15.317l-5.94-17.594h-8.676v33.3h169.014V105.468z M289.117,132.598
	l-6.136-19.071h12.271L289.117,132.598z M469.459,254.06v15.911h29.521v6.921h-29.521v15.912h29.521v6.922h-29.521v15.913h55.109
	V254.06H469.459z M432.152,228.967v25.093h-58.879V149.544H204.258V254.06h57.073v-31.717h55.084v54.308h19.376v75.422H204.259
	v-6.922h124.7v-15.913h-86.975v-6.921h86.975v-15.912h-86.975v-6.922h86.975v-15.91h-103.81v-6.922h36.153v-15.917H135.117v107.251
	h83.291v186.309h19.741v17.84h12.191v-17.84h9.74v17.84h12.191v-17.84h9.741v17.84h12.17V513.49h-8.795V401.269h64.875
	l-0.049,107.812h18.224l-0.003-18.625h10.298v18.625H396.5v-18.625h9.953v18.625h17.811V356.916h-50.99v-41.554h88.301l0,0v-69.219
	h28.797v-17.177H432.152z M278.139,203.269h-52.989v-31.795h52.989V203.269z M352.826,203.269h-52.989v-31.795h52.989V203.269z
	 M306.8,273.483l-18.058-12.354l-18.061,12.354v-40.627h1.097l3.135,9.745l3.135-9.745h0.645l3.134,9.745l3.134-9.745h0.645
	l3.136,9.745l3.134-9.745h0.645l3.134,9.745l3.134-9.745h0.645l3.136,9.745l3.134-9.745h1.1V273.483z"/>
</svg>
