<svg xmlns="http://www.w3.org/2000/svg" version="1.1" x="0" y="0" width="50" height="50" viewBox="-5 0 50 50" xml:space="preserve"><style>.s0{fill:#FFF;}</style><path d="M25 1.1h-1l-1 2h-1v-2h-2v2h-2v-2L16 0 14 1.1v2h-2v-2h-2v2H9l-1-2H7v4h18V1.1zM16 4.1l-1-2h2L16 4.1z" fill="#FFF"/><polygon points="37 11.1 39 11.1 39 8.1 41 8.1 38 1.1 35 8.1 37 8.1 " fill="#FFF"/><path d="M36 15h-6v3l-5-0.1V7H7l0 10L13 16.9v-3h6V20h2v7H7v-1h13v-1h-9v-1h9v-1h-9v-1h9V21H9v-1h4v-2.1H0v12h8V48h3v1.9h1l0-2h1l0 2h1l0-2h1l0 2h1v-6h-1v-11h7v11h2v-2h1v2h2v-2h1v2h2V28h-6v-4h9v-7h3V15zM15 12.1H9l0-3h6L15 12.1zM17 12.1l0-3L23 9v3L17 12.1z" fill="#FFF"/><polygon points="18 15.1 17 16.1 16 15.1 15 16.1 14 15.1 14 19.1 16 18.1 18 19.1 " fill="#FFF"/><polygon points="40 18 39 18 39 12.1 37 12.1 37 18 34 18 34 20.1 37 20.1 37 21.1 34 21.1 34 22.1 37 22.1 37 23.1 34 23 34 25.1 37 25.1 37 49 39 49.1 39 25.1 40 25.1 " fill="#FFF"/></svg>