<?xml version="1.0" encoding="utf-8"?>
<!-- Generator: Adobe Illustrator 15.1.0, SVG Export Plug-In  -->
<!DOCTYPE svg PUBLIC "-//W3C//DTD SVG 1.1//EN" "http://www.w3.org/Graphics/SVG/1.1/DTD/svg11.dtd" [
	<!ENTITY ns_flows "http://ns.adobe.com/Flows/1.0/">
]>
<svg version="1.1"
	 xmlns="http://www.w3.org/2000/svg" xmlns:xlink="http://www.w3.org/1999/xlink" xmlns:a="http://ns.adobe.com/AdobeSVGViewerExtensions/3.0/"
	 x="0px" y="0px" width="100px" height="100px" viewBox="50 50 100 100" overflow="visible" enable-background="new 50 50 100 100"
	 xml:space="preserve">
<defs>
</defs>
<circle display="none" fill="#231F20" cx="100" cy="100" r="100"/>
<g>
	<path fill="#F1F2F2" d="M53,63c0-5.5,4.5-10,10-10h16.163c5.5,0,10,4.5,10,10v74c0,5.5-4.5,10-10,10H63c-5.5,0-10-4.5-10-10V63z
		 M110.837,137c0,5.5,4.5,10,10,10H137c5.5,0,10-4.5,10-10V63c0-5.5-4.5-10-10-10h-16.163c-5.5,0-10,4.5-10,10V137z"/>
</g>
</svg>
