<svg xmlns="http://www.w3.org/2000/svg" version="1.1" x="0" y="0" width="663" height="663" viewBox="-6.1 -142.1 663 663" overflow="visible" enable-background="new -6.143 -142.138 663 663" xml:space="preserve"><polygon fill="#1c1c1a" points="461.9 243.1 477.2 216.5 324 128.1 308.7 154.7 206 95.4 185.7 130.7 288.3 190 258.9 240.9 302.9 266.2 332.3 215.4 342.9 221.5 313.5 272.4 357.5 297.8 386.9 246.9 397.5 253 368.1 303.9 412.1 329.3 441.5 278.4 630.3 387.5 650.7 352.2 "/><polygon fill="#1c1c1a" points="175.1 124.6 195.4 89.3 134.1 53.9 149.2 27.7 0 0 98.6 115.3 113.7 89.2 "/><polygon fill="#1c1c1a" points="269.1 195.4 225.5 170.2 165.8 273.6 225 307.8 102 520.9 287.6 520.9 395.2 334.5 240.6 245.2 "/></svg>